#!OML:ASF X:\für Bonn\!DataBase\2005_08_12_Daniel\c3d\Daniel.ASF
:FULLY-SPECIFIED
:DEGREES
137
root 1.9867 17.4922 18.3218 -727.082 27.2874 -1.8181
lowerback 9.3143 0.885818 5.21298
upperback 0.162583 1.5228 -4.69547
thorax -4.80341 0.588637 -8.1455
lowerneck 0.478341 -5.824 -2.93593
upperneck 8.92279 -7.93863 2.83579
head 3.03142 -3.94643 1.20941
rclavicle -4.97956e-014 -4.77083e-014
rhumerus 24.9827 -12.2398 -50.4831
rradius 66.7484
rwrist -2.85177
rhand -4.01367 14.539
rfingers 7.12502
rthumb 21.7408 -14.2601
lclavicle -4.97956e-014 -4.77083e-014
lhumerus -44.0016 41.8198 52.6789
lradius 19.1572
lwrist -37.8402
lhand -10.4538 -5.73608
lfingers 7.12502
lthumb 15.5466 23.659
rfemur 2.50764 10.3859 20.3107
rtibia 25.6639
rfoot -21.1917 -10.3505
rtoes -16.1233
lfemur -6.75851 -20.7641 -16.5036
ltibia 34.7509
lfoot -21.5082 -5.82942
ltoes -9.8325
138
root 1.96232 17.4916 18.3174 -727.157 27.8307 -1.84554
lowerback 9.37547 0.732767 5.15586
upperback 0.195408 1.31721 -4.63004
thorax -4.84236 0.487613 -8.01632
lowerneck 0.57872 -5.74491 -2.92884
upperneck 8.89773 -7.81153 2.56493
head 2.98529 -3.89178 1.12795
rclavicle -2.24627e-014 4.77083e-014
rhumerus 23.6114 -12.5814 -51.0811
rradius 69.4586
rwrist -4.59577
rhand -4.55441 14.6585
rfingers 7.12502
rthumb 21.2215 -14.1998
lclavicle -2.24627e-014 4.77083e-014
lhumerus -43.8404 41.1438 53.2023
lradius 19.4691
lwrist -36.952
lhand -10.5148 -5.71808
lfingers 7.12502
lthumb 15.4878 23.6816
rfemur 2.42463 11.1828 20.2158
rtibia 25.869
rfoot -20.8026 -9.08198
rtoes -16.4213
lfemur -6.9401 -20.8893 -16.3756
ltibia 34.7949
lfoot -21.3622 -6.25607
ltoes -9.853
139
root 1.93696 17.4911 18.3135 -727.241 28.3833 -1.87213
lowerback 9.44828 0.576417 5.0832
upperback 0.221801 1.10661 -4.54747
thorax -4.89514 0.383952 -7.85883
lowerneck 0.711243 -5.6473 -2.88665
upperneck 8.87084 -7.65444 2.20941
head 2.92627 -3.82349 1.0153
rclavicle -3.16565e-014 -7.95139e-015
rhumerus 22.2452 -12.8381 -51.6516
rradius 72.1363
rwrist -6.35083
rhand -4.96399 14.8672
rfingers 7.12502
rthumb 20.828 -14.0348
lclavicle -3.16565e-014 -7.95139e-015
lhumerus -43.7344 40.5061 53.7085
lradius 19.7956
lwrist -36.0867
lhand -10.5389 -5.70333
lfingers 7.12502
lthumb 15.4646 23.6981
rfemur 2.39405 12.1016 20.1135
rtibia 25.9803
rfoot -20.4631 -7.69681
rtoes -16.2099
lfemur -7.09805 -21.0833 -16.265
ltibia 34.8253
lfoot -21.246 -6.62521
ltoes -9.91497
140
root 1.91029 17.4905 18.3119 -727.31 28.9912 -1.89858
lowerback 9.48028 0.396591 4.97903
upperback 0.254928 0.860193 -4.45904
thorax -4.92318 0.264643 -7.66976
lowerneck 0.836559 -5.52538 -2.74475
upperneck 8.8402 -7.45865 1.74961
head 2.85743 -3.73532 0.853621
rclavicle -2.91716e-014 1.11319e-014
rhumerus 20.9261 -13.025 -52.2354
rradius 74.7857
rwrist -8.13615
rhand -5.22553 15.0887
rfingers 7.12502
rthumb 20.5767 -13.8407
lclavicle -2.91716e-014 1.11319e-014
lhumerus -43.6329 39.8428 54.236
lradius 20.1555
lwrist -35.2217
lhand -10.5818 -5.61721
lfingers 7.12502
lthumb 15.4233 23.7874
rfemur 2.40853 13.0767 20.0032
rtibia 26.0032
rfoot -20.1536 -6.21837
rtoes -15.7212
lfemur -7.28867 -21.3189 -16.1477
ltibia 34.8566
lfoot -21.1067 -6.99475
ltoes -9.94654
141
root 1.88227 17.4896 18.3123 -727.399 29.6649 -1.92925
lowerback 9.49793 0.191254 4.85091
upperback 0.311391 0.577508 -4.3595
thorax -4.923 0.12991 -7.44854
lowerneck 0.977999 -5.38944 -2.58091
upperneck 8.7497 -7.24197 1.25211
head 2.76414 -3.63683 0.678686
rclavicle -2.43014e-014 3.18055e-015
rhumerus 19.6634 -13.1169 -52.8039
rradius 77.3973
rwrist -9.8904
rhand -5.44584 15.2679
rfingers 7.12502
rthumb 20.365 -13.6843
lclavicle -2.43014e-014 3.18055e-015
lhumerus -43.5744 39.316 54.6926
lradius 20.5015
lwrist -34.5496
lhand -10.6589 -5.52436
lfingers 7.12502
lthumb 15.349 23.886
rfemur 2.48864 14.021 19.8994
rtibia 25.9547
rfoot -19.8158 -4.68005
rtoes -14.9306
lfemur -7.47667 -21.5548 -16.0211
ltibia 34.8952
lfoot -20.969 -7.44844
ltoes -9.99371
142
root 1.85331 17.4885 18.3153 -727.476 30.3971 -1.9598
lowerback 9.47953 -0.0295241 4.69165
upperback 0.360693 0.270119 -4.25112
thorax -4.91182 -0.0160719 -7.1955
lowerneck 1.17716 -5.23784 -2.35534
upperneck 8.66258 -7.00152 0.679938
head 2.65764 -3.52602 0.472679
rclavicle 3.67255e-014 -3.65764e-014
rhumerus 18.4445 -13.1347 -53.4243
rradius 79.9754
rwrist -11.4907
rhand -5.66068 15.3773
rfingers 7.12502
rthumb 20.1585 -13.5968
lclavicle 3.67255e-014 -3.65764e-014
lhumerus -43.5292 38.7408 55.1652
lradius 20.8464
lwrist -33.7822
lhand -10.7043 -5.45226
lfingers 7.12502
lthumb 15.3053 23.9614
rfemur 2.60024 14.9549 19.8008
rtibia 25.8546
rfoot -19.4927 -3.15817
rtoes -14.1934
lfemur -7.69516 -21.8595 -15.8948
ltibia 34.9477
lfoot -20.8268 -7.88021
ltoes -10.0511
143
root 1.82225 17.4852 18.3194 -727.571 31.1697 -2.00946
lowerback 9.45752 -0.26208 4.53643
upperback 0.42174 -0.0522056 -4.14173
thorax -4.88554 -0.168704 -6.94173
lowerneck 1.46913 -5.07906 -2.06859
upperneck 8.47077 -6.75228 0.0705843
head 2.49879 -3.40892 0.250212
rclavicle -3.34952e-014 1.59028e-015
rhumerus 17.2068 -13.0765 -54.1081
rradius 82.5745
rwrist -12.8912
rhand -5.97056 15.4621
rfingers 7.12502
rthumb 19.8607 -13.5431
lclavicle -3.34952e-014 1.59028e-015
lhumerus -43.47 38.2096 55.6151
lradius 21.1702
lwrist -33.1171
lhand -10.7602 -5.35817
lfingers 7.12502
lthumb 15.2515 24.0596
rfemur 2.75162 15.8779 19.7559
rtibia 25.7139
rfoot -19.1318 -1.67714
rtoes -13.5775
lfemur -7.93263 -22.1541 -15.7419
ltibia 35.0192
lfoot -20.697 -8.35609
ltoes -10.1078
144
root 1.79056 17.4816 18.3237 -727.652 31.9558 -2.04109
lowerback 9.43303 -0.499444 4.35185
upperback 0.481475 -0.383596 -4.02559
thorax -4.8572 -0.325137 -6.6628
lowerneck 1.73725 -4.90737 -1.74921
upperneck 8.2896 -6.4824 -0.604703
head 2.34848 -3.28067 0.00225227
rclavicle -3.81915e-014 -6.36111e-014
rhumerus 16.0042 -12.9034 -54.789
rradius 85.1267
rwrist -14.194
rhand -6.38017 15.5024
rfingers 7.12502
rthumb 19.4669 -13.5432
lclavicle -3.81915e-014 -6.36111e-014
lhumerus -43.4056 37.7271 56.0461
lradius 21.4525
lwrist -32.4637
lhand -10.856 -5.29774
lfingers 7.12502
lthumb 15.1592 24.127
rfemur 2.91148 16.7122 19.701
rtibia 25.5404
rfoot -18.7771 -0.181092
rtoes -13.0882
lfemur -8.19271 -22.4747 -15.6094
ltibia 35.1141
lfoot -20.5817 -8.81752
ltoes -10.2564
145
root 1.75723 17.4771 18.3286 -727.734 32.7729 -2.07937
lowerback 9.40349 -0.743004 4.16339
upperback 0.543094 -0.723516 -3.9108
thorax -4.82163 -0.485564 -6.38245
lowerneck 1.90519 -4.73103 -1.40269
upperneck 8.20287 -6.20217 -1.32357
head 2.24992 -3.14661 -0.267519
rclavicle 8.49804e-015 -4.92986e-014
rhumerus 14.8458 -12.6071 -55.4283
rradius 87.5289
rwrist -15.3294
rhand -7.01929 15.5865
rfingers 7.12502
rthumb 18.8523 -13.5199
lclavicle 8.49804e-015 -4.92986e-014
lhumerus -43.3207 37.2603 56.4745
lradius 21.7191
lwrist -31.8216
lhand -10.9516 -5.1879
lfingers 7.12502
lthumb 15.0671 24.2438
rfemur 3.08493 17.4264 19.6688
rtibia 25.3406
rfoot -18.3947 1.25101
rtoes -12.8222
lfemur -8.48709 -22.8125 -15.4623
ltibia 35.2375
lfoot -20.4572 -9.28484
ltoes -10.3749
